<svg xmlns="http://www.w3.org/2000/svg" version="1.1" xmlns:xlink="http://www.w3.org/1999/xlink" viewBox="0 0 700 700" style="overflow: hidden; display: block;" width="700" height="700"><defs><linearGradient id="two-41" x1="350" y1="-350" x2="350" y2="350" spreadMethod="pad" gradientUnits="userSpaceOnUse"><stop offset="0%" stop-color="hsl(205, 69%, 60%)" stop-opacity="1"></stop><stop offset="100%" stop-color="hsl(205, 69%, 80%)" stop-opacity="1"></stop></linearGradient></defs><g id="two-0" transform="matrix(1 0 0 1 0 0)" opacity="1"><path transform="matrix(1 0 0 1 350 350)" id="two-43" d="M 284.028028 83.398153 C 273.408939 109.228853 275.253061 147.405823 251.048702 161.339204 C 215.029587 182.073819 158.577194 119.593629 126.102968 145.530583 C 98.214756 167.804717 146.380295 235.071394 115.622483 253.177923 C 89.425982 268.599297 58.370893 229.974439 31.126596 216.490235 C 11.60388 206.827725 -8.998474 197.265104 -26.497231 184.292285 C -41.236549 173.365195 -48.384771 148.287274 -66.554129 145.733213 C -107.368916 139.995891 -135.856061 207.623393 -176.928571 204.186455 C -203.532896 201.960211 -234.519295 180.83294 -241.135682 154.968492 C -249.781766 121.169657 -185.495268 90.665783 -198.423107 58.26228 C -216.908478 11.928875 -337.884381 49.884794 -337.910331 0 C -337.936248 -49.820889 -219.173903 -12.9299 -198.662414 -58.332548 C -185.966531 -86.435175 -227.779332 -116.045938 -228.54027 -146.873913 C -229.285711 -177.074099 -230.149199 -220.563246 -203.585873 -234.950622 C -169.469878 -253.428718 -126.913374 -215.459724 -91.33222 -199.989666 C -67.582763 -189.66382 -47.714411 -152.867389 -23.164159 -161.110264 C 32.261331 -179.719661 -11.808402 -320.97182 46.580593 -323.975142 C 84.329065 -325.91679 80.908038 -255.071527 102.235721 -223.865004 C 115.324262 -204.713938 127.159916 -181.630571 147.06891 -169.726571 C 172.816214 -154.331726 222.5761 -178.521409 236.186697 -151.787974 C 251.883116 -120.957641 180.338425 -88.914939 192.452746 -56.509226 C 208.290346 -14.143772 300.415867 -41.951874 317.318576 -0.000001 C 328.392856 27.485938 295.2953 55.990762 284.028028 83.398153 Z " fill="#10f5cc" stroke="undefined" stroke-width="1" stroke-opacity="1" fill-opacity="1" visibility="visible" stroke-linecap="butt" stroke-linejoin="miter" stroke-miterlimit="4"></path></g></svg>